MicroGrotesk-Black.ufo
<glyph name="comma" format="2">
  <advance width="82"/>
  <unicode hex="002C"/>
  <outline>
    <contour>
      <point x="23" y="-20" type="curve"/>
      <point x="23" y="-32" type="line"/>
      <point x="37.119" y="-32.253"/>
      <point x="56.731" y="-24.812"/>
      <point x="56.843" y="-0.376" type="curve" smooth="yes"/>
      <point x="57" y="36" type="line"/>
      <point x="23.298" y="36" type="line"/>
      <point x="23.01" y="0" type="line"/>
      <point x="35" y="0" type="line"/>
      <point x="35" y="-9" type="line" smooth="yes"/>
      <point x="35" y="-19.117"/>
      <point x="28.476" y="-20"/>
    </contour>
  </outline>
</glyph>
<glyph name="hyphen" format="2">
  <advance width="122"/>
  <unicode hex="002D"/>
  <outline>
    <contour>
      <point x="18" y="66" type="line"/>
      <point x="104" y="66" type="line"/>
      <point x="104" y="94" type="line"/>
      <point x="18" y="94" type="line"/>
    </contour>
  </outline>
</glyph>
<glyph name="period" format="2">
  <advance width="70"/>
  <unicode hex="002E"/>
  <outline>
    <contour>
      <point x="37" y="0" type="curve" smooth="yes"/>
      <point x="53" y="0"/>
      <point x="68" y="15"/>
      <point x="68" y="31" type="curve" smooth="yes"/>
      <point x="68" y="50"/>
      <point x="53" y="66"/>
      <point x="37" y="66" type="curve" smooth="yes"/>
      <point x="18" y="66"/>
      <point x="2" y="50"/>
      <point x="2" y="31" type="curve" smooth="yes"/>
      <point x="2" y="15"/>
      <point x="18" y="0"/>
    </contour>
  </outline>
</glyph>
<glyph name="zero" format="2">
  <advance width="188"/>
  <unicode hex="0030"/>
  <outline>
    <contour>
      <point x="94" y="-6" type="curve" smooth="yes"/>
      <point x="144.01" y="-6"/>
      <point x="176" y="34"/>
      <point x="176" y="95" type="curve" smooth="yes"/>
      <point x="176" y="161"/>
      <point x="144" y="197.02"/>
      <point x="94" y="198" type="curve" smooth="yes"/>
      <point x="43" y="199"/>
      <point x="12" y="161.008"/>
      <point x="12" y="95" type="curve" smooth="yes"/>
      <point x="12" y="34"/>
      <point x="43" y="-6"/>
    </contour>
    <contour>
      <point x="94" y="36" type="curve" smooth="yes"/>
      <point x="76" y="36"/>
      <point x="64" y="57"/>
      <point x="64" y="95" type="curve" smooth="yes"/>
      <point x="64" y="138"/>
      <point x="76" y="158"/>
      <point x="94" y="158" type="curve" smooth="yes"/>
      <point x="111" y="158"/>
      <point x="124" y="138.013"/>
      <point x="124" y="95" type="curve" smooth="yes"/>
      <point x="124" y="57"/>
      <point x="111" y="36"/>
    </contour>
  </outline>
</glyph>
<glyph name="one" format="2">
  <advance width="123"/>
  <unicode hex="0031"/>
  <outline>
    <contour>
      <point x="47" y="0" type="line"/>
      <point x="97" y="0" type="line"/>
      <point x="97" y="192" type="line"/>
      <point x="12" y="192" type="line"/>
      <point x="12" y="146" type="line"/>
      <point x="47" y="146" type="line"/>
    </contour>
  </outline>
</glyph>
<glyph name="two" format="2">
  <advance width="166"/>
  <unicode hex="0032"/>
  <outline>
    <contour>
      <point x="12" y="0" type="line"/>
      <point x="156" y="0" type="line"/>
      <point x="156" y="40" type="line"/>
      <point x="73" y="40" type="line"/>
      <point x="128.144" y="95.291" type="line" smooth="yes"/>
      <point x="146.301" y="114.144"/>
      <point x="154" y="125.097"/>
      <point x="154" y="138" type="curve" smooth="yes"/>
      <point x="154" y="172"/>
      <point x="125" y="194"/>
      <point x="80" y="194" type="curve" smooth="yes"/>
      <point x="36.988" y="194"/>
      <point x="9" y="171"/>
      <point x="8" y="132" type="curve"/>
      <point x="56" y="132" type="line"/>
      <point x="57" y="147"/>
      <point x="66" y="156"/>
      <point x="80" y="156" type="curve" smooth="yes"/>
      <point x="94" y="156"/>
      <point x="104" y="147"/>
      <point x="104" y="132" type="curve" smooth="yes"/>
      <point x="104" y="120"/>
      <point x="95.14" y="112.014"/>
      <point x="82" y="100" type="curve" smooth="yes"/>
      <point x="12" y="36" type="line"/>
    </contour>
  </outline>
</glyph>
<glyph name="three" format="2">
  <advance width="172.04"/>
  <unicode hex="0033"/>
  <outline>
    <contour>
      <point x="86" y="-2" type="curve" smooth="yes"/>
      <point x="131" y="-3"/>
      <point x="163" y="21"/>
      <point x="162" y="54" type="curve" smooth="yes"/>
      <point x="163.095" y="78.096"/>
      <point x="142.942" y="95.84"/>
      <point x="118" y="101" type="curve"/>
      <point x="140" y="102"/>
      <point x="156" y="120"/>
      <point x="156" y="140" type="curve" smooth="yes"/>
      <point x="156" y="172"/>
      <point x="127" y="195"/>
      <point x="86" y="194" type="curve" smooth="yes"/>
      <point x="43" y="195"/>
      <point x="13" y="171"/>
      <point x="14" y="136" type="curve"/>
      <point x="62" y="136" type="line"/>
      <point x="62" y="148"/>
      <point x="72" y="156"/>
      <point x="86" y="156" type="curve" smooth="yes"/>
      <point x="98" y="156"/>
      <point x="107" y="148"/>
      <point x="106" y="138" type="curve" smooth="yes"/>
      <point x="107" y="126"/>
      <point x="97" y="115"/>
      <point x="82" y="115" type="curve" smooth="yes"/>
      <point x="62" y="115" type="line"/>
      <point x="62" y="81" type="line"/>
      <point x="82" y="81" type="line" smooth="yes"/>
      <point x="98.031" y="81"/>
      <point x="109" y="69"/>
      <point x="110" y="58" type="curve" smooth="yes"/>
      <point x="109" y="46"/>
      <point x="99" y="38"/>
      <point x="86" y="38" type="curve" smooth="yes"/>
      <point x="71" y="38"/>
      <point x="61" y="46"/>
      <point x="60" y="56" type="curve"/>
      <point x="10" y="56" type="line"/>
      <point x="10" y="22"/>
      <point x="41" y="-3"/>
    </contour>
  </outline>
</glyph>
<glyph name="four" format="2">
  <advance width="180"/>
  <unicode hex="0034"/>
  <outline>
    <contour>
      <point x="102" y="0" type="line"/>
      <point x="150" y="0" type="line"/>
      <point x="150" y="30" type="line"/>
      <point x="170" y="30" type="line"/>
      <point x="170" y="68" type="line"/>
      <point x="150" y="68" type="line"/>
      <point x="150" y="192" type="line"/>
      <point x="86" y="192" type="line"/>
      <point x="10" y="66" type="line"/>
      <point x="10" y="30" type="line"/>
      <point x="102" y="30" type="line"/>
    </contour>
    <contour>
      <point x="60" y="68" type="line"/>
      <point x="102" y="140" type="line"/>
      <point x="102" y="68" type="line"/>
    </contour>
  </outline>
</glyph>
<glyph name="five" format="2">
  <advance width="172"/>
  <unicode hex="0035"/>
  <outline>
    <contour>
      <point x="86" y="-2" type="curve" smooth="yes"/>
      <point x="132" y="-3"/>
      <point x="162" y="25"/>
      <point x="162" y="64" type="curve" smooth="yes"/>
      <point x="162" y="99"/>
      <point x="137" y="128"/>
      <point x="104" y="128" type="curve" smooth="yes"/>
      <point x="84.468" y="128"/>
      <point x="68.877" y="118.316"/>
      <point x="62" y="108" type="curve"/>
      <point x="66" y="152" type="line"/>
      <point x="150" y="152" type="line"/>
      <point x="150" y="192" type="line"/>
      <point x="26" y="192" type="line"/>
      <point x="18" y="88" type="line"/>
      <point x="62" y="78" type="line"/>
      <point x="66" y="88"/>
      <point x="76" y="93"/>
      <point x="86" y="94" type="curve" smooth="yes"/>
      <point x="102" y="93"/>
      <point x="113" y="79"/>
      <point x="114" y="62" type="curve" smooth="yes"/>
      <point x="113" y="46"/>
      <point x="102" y="36"/>
      <point x="86" y="36" type="curve" smooth="yes"/>
      <point x="74" y="36"/>
      <point x="63" y="44"/>
      <point x="62" y="56" type="curve"/>
      <point x="14" y="56" type="line"/>
      <point x="14" y="22"/>
      <point x="44" y="-3"/>
    </contour>
  </outline>
</glyph>
<glyph name="six" format="2">
  <advance width="176"/>
  <unicode hex="0036"/>
  <outline>
    <contour>
      <point x="90" y="-2" type="curve" smooth="yes"/>
      <point x="134.011" y="-2"/>
      <point x="164" y="23.988"/>
      <point x="164" y="64" type="curve" smooth="yes"/>
      <point x="164" y="98"/>
      <point x="142" y="123"/>
      <point x="108" y="122" type="curve" smooth="yes"/>
      <point x="87" y="123"/>
      <point x="68" y="113"/>
      <point x="60" y="96" type="curve"/>
      <point x="60" y="131"/>
      <point x="69" y="152"/>
      <point x="90" y="152" type="curve" smooth="yes"/>
      <point x="101" y="152"/>
      <point x="110" y="145"/>
      <point x="112" y="134" type="curve"/>
      <point x="162" y="134" type="line"/>
      <point x="159" y="166"/>
      <point x="132.012" y="194"/>
      <point x="90" y="194" type="curve" smooth="yes"/>
      <point x="42" y="194"/>
      <point x="10" y="156"/>
      <point x="10" y="90" type="curve" smooth="yes"/>
      <point x="10" y="22.993"/>
      <point x="47" y="-2"/>
    </contour>
    <contour>
      <point x="90" y="36" type="curve" smooth="yes"/>
      <point x="75" y="36"/>
      <point x="64" y="47"/>
      <point x="64" y="62" type="curve" smooth="yes"/>
      <point x="64" y="78"/>
      <point x="74.967" y="88"/>
      <point x="90" y="88" type="curve" smooth="yes"/>
      <point x="105" y="88"/>
      <point x="116" y="78"/>
      <point x="116" y="62" type="curve" smooth="yes"/>
      <point x="116" y="47"/>
      <point x="105" y="36"/>
    </contour>
  </outline>
</glyph>
<glyph name="seven" format="2">
  <advance width="156"/>
  <unicode hex="0037"/>
  <outline>
    <contour>
      <point x="20" y="0" type="line"/>
      <point x="72" y="0" type="line"/>
      <point x="146" y="152" type="line"/>
      <point x="146" y="192" type="line"/>
      <point x="8" y="192" type="line"/>
      <point x="8" y="152" type="line"/>
      <point x="94" y="152" type="line"/>
    </contour>
  </outline>
</glyph>
<glyph name="eight" format="2">
  <advance width="176.04"/>
  <unicode hex="0038"/>
  <outline>
    <contour>
      <point x="88" y="-2" type="curve" smooth="yes"/>
      <point x="133" y="-3"/>
      <point x="167" y="20"/>
      <point x="166" y="50" type="curve" smooth="yes"/>
      <point x="167" y="74"/>
      <point x="147" y="95"/>
      <point x="124" y="100" type="curve"/>
      <point x="144" y="103"/>
      <point x="160" y="123"/>
      <point x="160" y="144" type="curve" smooth="yes"/>
      <point x="160" y="173"/>
      <point x="129" y="195"/>
      <point x="88" y="194" type="curve" smooth="yes"/>
      <point x="47" y="195"/>
      <point x="17" y="173"/>
      <point x="18" y="144" type="curve" smooth="yes"/>
      <point x="17" y="123"/>
      <point x="32" y="103"/>
      <point x="54" y="100" type="curve"/>
      <point x="29" y="95"/>
      <point x="10" y="74"/>
      <point x="10" y="50" type="curve" smooth="yes"/>
      <point x="10" y="20"/>
      <point x="43" y="-3"/>
    </contour>
    <contour>
      <point x="88" y="32" type="curve" smooth="yes"/>
      <point x="74" y="32"/>
      <point x="64" y="42"/>
      <point x="64" y="54" type="curve" smooth="yes"/>
      <point x="64" y="68"/>
      <point x="74" y="78"/>
      <point x="88" y="78" type="curve" smooth="yes"/>
      <point x="103.033" y="78"/>
      <point x="114" y="68.036"/>
      <point x="114" y="54" type="curve" smooth="yes"/>
      <point x="114" y="42"/>
      <point x="103" y="32"/>
    </contour>
    <contour>
      <point x="88" y="118" type="curve" smooth="yes"/>
      <point x="76" y="118"/>
      <point x="66" y="127"/>
      <point x="66" y="138" type="curve" smooth="yes"/>
      <point x="66" y="150.042"/>
      <point x="76" y="158"/>
      <point x="88" y="158" type="curve" smooth="yes"/>
      <point x="101" y="158"/>
      <point x="110" y="150"/>
      <point x="110" y="138" type="curve" smooth="yes"/>
      <point x="110" y="127"/>
      <point x="101" y="118"/>
    </contour>
  </outline>
</glyph>
<glyph name="nine" format="2">
  <advance width="176"/>
  <unicode hex="0039"/>
  <outline>
    <contour>
      <point x="84" y="-2" type="curve" smooth="yes"/>
      <point x="134" y="-3"/>
      <point x="166" y="41"/>
      <point x="166" y="102" type="curve" smooth="yes"/>
      <point x="166" y="169"/>
      <point x="129" y="194"/>
      <point x="86" y="194" type="curve" smooth="yes"/>
      <point x="40.989" y="194"/>
      <point x="10" y="168"/>
      <point x="10" y="128" type="curve" smooth="yes"/>
      <point x="10" y="95"/>
      <point x="33" y="70"/>
      <point x="66" y="70" type="curve" smooth="yes"/>
      <point x="90.045" y="70"/>
      <point x="108.416" y="82.833"/>
      <point x="116" y="98" type="curve"/>
      <point x="115" y="66"/>
      <point x="106" y="40"/>
      <point x="84" y="40" type="curve" smooth="yes"/>
      <point x="74" y="40"/>
      <point x="65" y="45"/>
      <point x="62" y="56" type="curve"/>
      <point x="12" y="56" type="line"/>
      <point x="16" y="24"/>
      <point x="43" y="-3"/>
    </contour>
    <contour>
      <point x="86" y="104" type="curve" smooth="yes"/>
      <point x="70" y="104"/>
      <point x="60" y="115"/>
      <point x="60" y="130" type="curve" smooth="yes"/>
      <point x="60" y="145.033"/>
      <point x="70" y="156"/>
      <point x="86" y="156" type="curve" smooth="yes"/>
      <point x="100.036" y="156"/>
      <point x="112" y="145.033"/>
      <point x="112" y="130" type="curve" smooth="yes"/>
      <point x="112" y="115"/>
      <point x="100" y="104"/>
    </contour>
  </outline>
</glyph>
<glyph name="A" format="2">
  <advance width="204"/>
  <unicode hex="0041"/>
  <outline>
    <contour>
      <point x="6" y="0" type="line"/>
      <point x="60" y="0" type="line"/>
      <point x="71.284" y="39" type="line"/>
      <point x="132.716" y="39" type="line"/>
      <point x="144" y="0" type="line"/>
      <point x="198" y="0" type="line"/>
      <point x="136" y="192" type="line"/>
      <point x="68" y="192" type="line"/>
    </contour>
    <contour>
      <point x="83.194" y="76" type="line"/>
      <point x="102" y="140" type="line"/>
      <point x="120.806" y="76" type="line"/>
    </contour>
  </outline>
</glyph>
<glyph name="B" format="2">
  <advance width="170"/>
  <unicode hex="0042"/>
  <outline>
    <contour>
      <point x="12" y="0" type="line"/>
      <point x="100" y="0" type="line" smooth="yes"/>
      <point x="140" y="0"/>
      <point x="166.034" y="22.001"/>
      <point x="166" y="52" type="curve" smooth="yes"/>
      <point x="165.967" y="81.017"/>
      <point x="146" y="99"/>
      <point x="122" y="101" type="curve"/>
      <point x="143" y="106"/>
      <point x="158" y="125"/>
      <point x="158" y="146" type="curve" smooth="yes"/>
      <point x="158" y="174"/>
      <point x="135" y="192"/>
      <point x="92" y="192" type="curve" smooth="yes"/>
      <point x="12" y="192" type="line"/>
    </contour>
    <contour>
      <point x="62" y="40" type="line"/>
      <point x="62" y="82" type="line"/>
      <point x="86" y="82" type="line" smooth="yes"/>
      <point x="102" y="82"/>
      <point x="112" y="74"/>
      <point x="112" y="61" type="curve" smooth="yes"/>
      <point x="112" y="48"/>
      <point x="103" y="40"/>
      <point x="86" y="40" type="curve" smooth="yes"/>
    </contour>
    <contour>
      <point x="62" y="114" type="line"/>
      <point x="62" y="152" type="line"/>
      <point x="84" y="152" type="line" smooth="yes"/>
      <point x="97.038" y="152"/>
      <point x="106" y="146"/>
      <point x="106" y="133" type="curve" smooth="yes"/>
      <point x="106" y="122"/>
      <point x="97.038" y="114"/>
      <point x="84" y="114" type="curve" smooth="yes"/>
    </contour>
  </outline>
</glyph>
<glyph name="C" format="2">
  <advance width="196"/>
  <unicode hex="0043"/>
  <outline>
    <contour>
      <point x="102" y="-2" type="curve" smooth="yes"/>
      <point x="156.009" y="-2"/>
      <point x="185" y="37"/>
      <point x="186" y="74" type="curve"/>
      <point x="134" y="74" type="line"/>
      <point x="132" y="51"/>
      <point x="121.026" y="42"/>
      <point x="102" y="42" type="curve" smooth="yes"/>
      <point x="78" y="42"/>
      <point x="64" y="60.986"/>
      <point x="64" y="96" type="curve" smooth="yes"/>
      <point x="64" y="129"/>
      <point x="77" y="150"/>
      <point x="102" y="150" type="curve" smooth="yes"/>
      <point x="122.025" y="150"/>
      <point x="133" y="137"/>
      <point x="134" y="118" type="curve"/>
      <point x="186" y="118" type="line"/>
      <point x="183" y="167"/>
      <point x="148.011" y="194"/>
      <point x="102" y="194" type="curve" smooth="yes"/>
      <point x="51" y="194"/>
      <point x="12" y="159"/>
      <point x="12" y="96" type="curve" smooth="yes"/>
      <point x="12" y="32.992"/>
      <point x="50" y="-2"/>
    </contour>
  </outline>
</glyph>
<glyph name="D" format="2">
  <advance width="188"/>
  <unicode hex="0044"/>
  <outline>
    <contour>
      <point x="12" y="0" type="line"/>
      <point x="84" y="0" type="line" smooth="yes"/>
      <point x="140" y="0"/>
      <point x="176" y="39"/>
      <point x="176" y="98" type="curve" smooth="yes"/>
      <point x="176" y="155"/>
      <point x="140" y="192"/>
      <point x="82" y="192" type="curve" smooth="yes"/>
      <point x="12" y="192" type="line"/>
    </contour>
    <contour>
      <point x="62" y="42" type="line"/>
      <point x="62" y="150" type="line"/>
      <point x="80" y="150" type="line" smooth="yes"/>
      <point x="109.017" y="150"/>
      <point x="125" y="136"/>
      <point x="126" y="98" type="curve" smooth="yes"/>
      <point x="125" y="58"/>
      <point x="109.019" y="42"/>
      <point x="82" y="42" type="curve" smooth="yes"/>
    </contour>
  </outline>
</glyph>
<glyph name="E" format="2">
  <advance width="160"/>
  <unicode hex="0045"/>
  <outline>
    <contour>
      <point x="12" y="0" type="line"/>
      <point x="146" y="0" type="line"/>
      <point x="146" y="40" type="line"/>
      <point x="62" y="40" type="line"/>
      <point x="62" y="77" type="line"/>
      <point x="140" y="77" type="line"/>
      <point x="140" y="119" type="line"/>
      <point x="62" y="119" type="line"/>
      <point x="62" y="152" type="line"/>
      <point x="146" y="152" type="line"/>
      <point x="146" y="192" type="line"/>
      <point x="12" y="192" type="line"/>
    </contour>
  </outline>
</glyph>
<glyph name="F" format="2">
  <advance width="150"/>
  <unicode hex="0046"/>
  <outline>
    <contour>
      <point x="12" y="0" type="line"/>
      <point x="62" y="0" type="line"/>
      <point x="62" y="77" type="line"/>
      <point x="134" y="77" type="line"/>
      <point x="134" y="119" type="line"/>
      <point x="62" y="119" type="line"/>
      <point x="62" y="152" type="line"/>
      <point x="142" y="152" type="line"/>
      <point x="142" y="192" type="line"/>
      <point x="12" y="192" type="line"/>
    </contour>
  </outline>
</glyph>
<glyph name="G" format="2">
  <advance width="200"/>
  <unicode hex="0047"/>
  <outline>
    <contour>
      <point x="102" y="-2" type="curve" smooth="yes"/>
      <point x="123.568" y="-2"/>
      <point x="141.475" y="6.512"/>
      <point x="154" y="20" type="curve"/>
      <point x="156" y="0" type="line"/>
      <point x="188" y="0" type="line"/>
      <point x="188" y="107" type="line"/>
      <point x="104" y="107" type="line"/>
      <point x="104" y="71" type="line"/>
      <point x="138" y="71" type="line"/>
      <point x="137" y="55"/>
      <point x="126.021" y="42"/>
      <point x="102" y="42" type="curve" smooth="yes"/>
      <point x="77" y="42"/>
      <point x="63.943" y="63.998"/>
      <point x="64" y="97" type="curve" smooth="yes"/>
      <point x="64.061" y="132.014"/>
      <point x="79" y="150"/>
      <point x="104" y="150" type="curve" smooth="yes"/>
      <point x="120.031" y="150"/>
      <point x="132" y="144"/>
      <point x="134" y="130" type="curve"/>
      <point x="186" y="130" type="line"/>
      <point x="182" y="168"/>
      <point x="147.012" y="194"/>
      <point x="104" y="194" type="curve" smooth="yes"/>
      <point x="53" y="194"/>
      <point x="12" y="160"/>
      <point x="12" y="95" type="curve" smooth="yes"/>
      <point x="12" y="36.991"/>
      <point x="49" y="-2"/>
    </contour>
  </outline>
</glyph>
<glyph name="H" format="2">
  <advance width="192"/>
  <unicode hex="0048"/>
  <outline>
    <contour>
      <point x="12" y="0" type="line"/>
      <point x="62" y="0" type="line"/>
      <point x="62" y="78" type="line"/>
      <point x="130" y="78" type="line"/>
      <point x="130" y="0" type="line"/>
      <point x="180" y="0" type="line"/>
      <point x="180" y="192" type="line"/>
      <point x="130" y="192" type="line"/>
      <point x="130" y="120" type="line"/>
      <point x="62" y="120" type="line"/>
      <point x="62" y="192" type="line"/>
      <point x="12" y="192" type="line"/>
    </contour>
  </outline>
</glyph>
<glyph name="J" format="2">
  <advance width="150"/>
  <unicode hex="004A"/>
  <outline>
    <contour>
      <point x="68" y="-2" type="curve" smooth="yes"/>
      <point x="109" y="-3"/>
      <point x="138" y="25"/>
      <point x="138" y="61" type="curve"/>
      <point x="138" y="192" type="line"/>
      <point x="88" y="192" type="line"/>
      <point x="88" y="61" type="line"/>
      <point x="89" y="47"/>
      <point x="83" y="37"/>
      <point x="72" y="36" type="curve" smooth="yes"/>
      <point x="60" y="37"/>
      <point x="54" y="47"/>
      <point x="54" y="61" type="curve"/>
      <point x="2" y="61" type="line"/>
      <point x="3" y="18"/>
      <point x="32" y="-3"/>
    </contour>
  </outline>
</glyph>
<glyph name="K" format="2">
  <advance width="182"/>
  <unicode hex="004B"/>
  <outline>
    <contour>
      <point x="12" y="0" type="line"/>
      <point x="62" y="0" type="line"/>
      <point x="62" y="51" type="line"/>
      <point x="80" y="73" type="line"/>
      <point x="122" y="0" type="line"/>
      <point x="182" y="0" type="line"/>
      <point x="118" y="107" type="line"/>
      <point x="180" y="192" type="line"/>
      <point x="122" y="192" type="line"/>
      <point x="62" y="112" type="line"/>
      <point x="62" y="192" type="line"/>
      <point x="12" y="192" type="line"/>
    </contour>
  </outline>
</glyph>
<glyph name="L" format="2">
  <advance width="147"/>
  <unicode hex="004C"/>
  <outline>
    <contour>
      <point x="12" y="0" type="line"/>
      <point x="138" y="0" type="line"/>
      <point x="138" y="40" type="line"/>
      <point x="62" y="40" type="line"/>
      <point x="62" y="192" type="line"/>
      <point x="12" y="192" type="line"/>
    </contour>
  </outline>
</glyph>
<glyph name="M" format="2">
  <advance width="238"/>
  <unicode hex="004D"/>
  <outline>
    <contour>
      <point x="12" y="0" type="line"/>
      <point x="62" y="0" type="line"/>
      <point x="62" y="114" type="line"/>
      <point x="104" y="2" type="line"/>
      <point x="134" y="2" type="line"/>
      <point x="178" y="114" type="line"/>
      <point x="178" y="0" type="line"/>
      <point x="226" y="0" type="line"/>
      <point x="226" y="192" type="line"/>
      <point x="164" y="192" type="line"/>
      <point x="120" y="80" type="line"/>
      <point x="74" y="192" type="line"/>
      <point x="12" y="192" type="line"/>
    </contour>
  </outline>
</glyph>
<glyph name="N" format="2">
  <advance width="186"/>
  <unicode hex="004E"/>
  <outline>
    <contour>
      <point x="12" y="0" type="line"/>
      <point x="62" y="0" type="line"/>
      <point x="62" y="104" type="line"/>
      <point x="130" y="0" type="line"/>
      <point x="174" y="0" type="line"/>
      <point x="174" y="192" type="line"/>
      <point x="122" y="192" type="line"/>
      <point x="122" y="94" type="line"/>
      <point x="54" y="192" type="line"/>
      <point x="12" y="192" type="line"/>
    </contour>
  </outline>
</glyph>
<glyph name="O" format="2">
  <advance width="204"/>
  <unicode hex="004F"/>
  <outline>
    <contour>
      <point x="102" y="-2" type="curve" smooth="yes"/>
      <point x="152" y="-3"/>
      <point x="192" y="34"/>
      <point x="192" y="97" type="curve" smooth="yes"/>
      <point x="192" y="158"/>
      <point x="152" y="195"/>
      <point x="102" y="194" type="curve" smooth="yes"/>
      <point x="51" y="195"/>
      <point x="12" y="158.008"/>
      <point x="12" y="97" type="curve" smooth="yes"/>
      <point x="12" y="34"/>
      <point x="51" y="-3"/>
    </contour>
    <contour>
      <point x="102" y="42" type="curve" smooth="yes"/>
      <point x="77" y="41"/>
      <point x="63" y="63"/>
      <point x="64" y="97" type="curve" smooth="yes"/>
      <point x="63" y="130"/>
      <point x="77" y="151"/>
      <point x="102" y="150" type="curve" smooth="yes"/>
      <point x="127" y="151"/>
      <point x="140" y="130"/>
      <point x="140" y="97" type="curve" smooth="yes"/>
      <point x="140" y="63"/>
      <point x="127" y="41"/>
    </contour>
  </outline>
</glyph>
<glyph name="P" format="2">
  <advance width="168"/>
  <unicode hex="0050"/>
  <outline>
    <contour>
      <point x="12" y="0" type="line"/>
      <point x="62" y="0" type="line"/>
      <point x="62" y="62" type="line"/>
      <point x="90" y="62" type="line" smooth="yes"/>
      <point x="133.035" y="62"/>
      <point x="162" y="86"/>
      <point x="162" y="126" type="curve" smooth="yes"/>
      <point x="162" y="166.012"/>
      <point x="134" y="192"/>
      <point x="92" y="192" type="curve" smooth="yes"/>
      <point x="12" y="192" type="line"/>
    </contour>
    <contour>
      <point x="62" y="100" type="line"/>
      <point x="62" y="152" type="line"/>
      <point x="80" y="152" type="line" smooth="yes"/>
      <point x="98.055" y="152"/>
      <point x="108" y="142.031"/>
      <point x="108" y="126" type="curve" smooth="yes"/>
      <point x="108" y="110"/>
      <point x="98.055" y="100"/>
      <point x="80" y="100" type="curve" smooth="yes"/>
    </contour>
  </outline>
</glyph>
<glyph name="Q" format="2">
  <advance width="204"/>
  <unicode hex="0051"/>
  <outline>
    <contour>
      <point x="150" y="-14" type="line"/>
      <point x="192" y="-14" type="line"/>
      <point x="124" y="70" type="line"/>
      <point x="84" y="70" type="line"/>
    </contour>
    <component base="O"/>
  </outline>
</glyph>
<glyph name="R" format="2">
  <advance width="170"/>
  <unicode hex="0052"/>
  <outline>
    <contour>
      <point x="12" y="0" type="line"/>
      <point x="62" y="0" type="line"/>
      <point x="62" y="68" type="line"/>
      <point x="79.478" y="68" type="line"/>
      <point x="112" y="0" type="line"/>
      <point x="168" y="0" type="line"/>
      <point x="130.177" y="75.645" type="line"/>
      <point x="149.712" y="85.122"/>
      <point x="162.361" y="102.095"/>
      <point x="162" y="128" type="curve" smooth="yes"/>
      <point x="161.428" y="169.008"/>
      <point x="134" y="192"/>
      <point x="92" y="192" type="curve" smooth="yes"/>
      <point x="12" y="192" type="line"/>
    </contour>
    <contour>
      <point x="62" y="106" type="line"/>
      <point x="62" y="152" type="line"/>
      <point x="80" y="152" type="line" smooth="yes"/>
      <point x="99" y="152"/>
      <point x="108" y="145.029"/>
      <point x="108" y="128" type="curve" smooth="yes"/>
      <point x="108" y="113"/>
      <point x="99.028" y="106"/>
      <point x="80" y="106" type="curve" smooth="yes"/>
    </contour>
  </outline>
</glyph>
<glyph name="S" format="2">
  <advance width="170.02"/>
  <unicode hex="0053"/>
  <outline>
    <contour>
      <point x="88.02" y="-2" type="curve" smooth="yes"/>
      <point x="135.02" y="-2"/>
      <point x="164.02" y="18"/>
      <point x="164.02" y="54" type="curve" smooth="yes"/>
      <point x="164.02" y="83.017"/>
      <point x="145.705" y="95.849"/>
      <point x="108.02" y="112" type="curve" smooth="yes"/>
      <point x="87.02" y="121" type="line" smooth="yes"/>
      <point x="70.247" y="128.188"/>
      <point x="64.02" y="130"/>
      <point x="64.02" y="140" type="curve" smooth="yes"/>
      <point x="64.02" y="147.071"/>
      <point x="72.02" y="154"/>
      <point x="88.02" y="154" type="curve" smooth="yes"/>
      <point x="104.051" y="154"/>
      <point x="112.02" y="146"/>
      <point x="112.02" y="134" type="curve"/>
      <point x="160.02" y="134" type="line"/>
      <point x="160.02" y="171"/>
      <point x="132.02" y="194"/>
      <point x="88.02" y="194" type="curve" smooth="yes"/>
      <point x="43.009" y="194"/>
      <point x="12.02" y="171"/>
      <point x="12.02" y="136" type="curve" smooth="yes"/>
      <point x="12.02" y="106"/>
      <point x="32.286" y="97.6"/>
      <point x="64.02" y="84" type="curve" smooth="yes"/>
      <point x="85.02" y="75" type="line" smooth="yes"/>
      <point x="103.969" y="66.879"/>
      <point x="112.02" y="63.055"/>
      <point x="112.02" y="54" type="curve" smooth="yes" name="hr00"/>
      <point x="112.02" y="46"/>
      <point x="103.02" y="40"/>
      <point x="86.02" y="40" type="curve" smooth="yes"/>
      <point x="67.992" y="40"/>
      <point x="56.02" y="48"/>
      <point x="56.02" y="66" type="curve"/>
      <point x="8.02" y="66" type="line"/>
      <point x="8.02" y="19"/>
      <point x="39.02" y="-2"/>
    </contour>
  </outline>
</glyph>
<glyph name="T" format="2">
  <advance width="152"/>
  <unicode hex="0054"/>
  <outline>
    <contour>
      <point x="-10" y="152" type="line"/>
      <point x="46" y="152" type="line"/>
      <point x="46" y="0" type="line"/>
      <point x="96" y="0" type="line"/>
      <point x="96" y="152" type="line"/>
      <point x="152" y="152" type="line"/>
      <point x="152" y="192" type="line"/>
      <point x="-10" y="192" type="line"/>
    </contour>
  </outline>
</glyph>
<glyph name="U" format="2">
  <advance width="184.02"/>
  <unicode hex="0055"/>
  <outline>
    <contour>
      <point x="92" y="-2" type="curve" smooth="yes"/>
      <point x="140" y="-2"/>
      <point x="172" y="23.988"/>
      <point x="172" y="66" type="curve" smooth="yes"/>
      <point x="172" y="192" type="line"/>
      <point x="122" y="192" type="line"/>
      <point x="122" y="72" type="line" smooth="yes"/>
      <point x="122" y="54"/>
      <point x="110" y="42"/>
      <point x="92" y="42" type="curve" smooth="yes"/>
      <point x="74.971" y="42"/>
      <point x="62" y="53.972"/>
      <point x="62" y="72" type="curve" smooth="yes"/>
      <point x="62" y="192" type="line"/>
      <point x="12" y="192" type="line"/>
      <point x="12" y="66" type="line" smooth="yes"/>
      <point x="12" y="24"/>
      <point x="44" y="-2"/>
    </contour>
  </outline>
</glyph>
<glyph name="V" format="2">
  <advance width="204"/>
  <unicode hex="0056"/>
  <outline>
    <contour>
      <point x="68" y="0" type="line"/>
      <point x="136" y="0" type="line"/>
      <point x="198" y="192" type="line"/>
      <point x="140" y="192" type="line"/>
      <point x="102" y="54" type="line"/>
      <point x="62" y="192" type="line"/>
      <point x="6" y="192" type="line"/>
    </contour>
  </outline>
</glyph>
<glyph name="W" format="2">
  <advance width="280"/>
  <unicode hex="0057"/>
  <outline>
    <contour>
      <point x="60" y="0" type="line"/>
      <point x="108" y="0" type="line"/>
      <point x="140" y="110" type="line"/>
      <point x="172" y="0" type="line"/>
      <point x="220" y="0" type="line"/>
      <point x="276" y="192" type="line"/>
      <point x="220" y="192" type="line"/>
      <point x="193" y="72" type="line"/>
      <point x="162" y="192" type="line"/>
      <point x="118" y="192" type="line"/>
      <point x="87" y="72" type="line"/>
      <point x="60" y="192" type="line"/>
      <point x="4" y="192" type="line"/>
    </contour>
  </outline>
</glyph>
<glyph name="X" format="2">
  <advance width="196"/>
  <unicode hex="0058"/>
  <outline>
    <contour>
      <point x="8" y="0" type="line"/>
      <point x="66" y="0" type="line"/>
      <point x="97" y="59" type="line"/>
      <point x="130" y="0" type="line"/>
      <point x="188" y="0" type="line"/>
      <point x="130" y="97" type="line"/>
      <point x="186" y="192" type="line"/>
      <point x="130" y="192" type="line"/>
      <point x="97" y="135" type="line"/>
      <point x="66" y="192" type="line"/>
      <point x="10" y="192" type="line"/>
      <point x="64" y="97" type="line"/>
    </contour>
  </outline>
</glyph>
<glyph name="Y" format="2">
  <advance width="196"/>
  <unicode hex="0059"/>
  <outline>
    <contour>
      <point x="72" y="0" type="line"/>
      <point x="122" y="0" type="line"/>
      <point x="122" y="62" type="line"/>
      <point x="192" y="192" type="line"/>
      <point x="134" y="192" type="line"/>
      <point x="98" y="112" type="line"/>
      <point x="60" y="192" type="line"/>
      <point x="4" y="192" type="line"/>
      <point x="72" y="62" type="line"/>
    </contour>
  </outline>
</glyph>
<glyph name="Z" format="2">
  <advance width="178"/>
  <unicode hex="005A"/>
  <outline>
    <contour>
      <point x="12" y="0" type="line"/>
      <point x="164" y="0" type="line"/>
      <point x="164" y="40" type="line"/>
      <point x="78" y="40" type="line"/>
      <point x="166" y="164" type="line"/>
      <point x="166" y="192" type="line"/>
      <point x="14" y="192" type="line"/>
      <point x="14" y="152" type="line"/>
      <point x="100" y="152" type="line"/>
      <point x="12" y="28" type="line"/>
    </contour>
  </outline>
</glyph>
<glyph name="a" format="2">
  <advance width="152"/>
  <unicode hex="0061"/>
  <outline>
    <contour>
      <point x="52" y="-2" type="curve" smooth="yes"/>
      <point x="71.266" y="-2"/>
      <point x="85.181" y="5.889"/>
      <point x="94" y="20" type="curve"/>
      <point x="94" y="13.333"/>
      <point x="96" y="5.667"/>
      <point x="100" y="0" type="curve"/>
      <point x="144.637" y="-0.703" type="line"/>
      <point x="141.585" y="6.504"/>
      <point x="140.579" y="14.673"/>
      <point x="140.481" y="27.917" type="curve" smooth="yes"/>
      <point x="140" y="93" type="line" smooth="yes"/>
      <point x="139.767" y="124.999"/>
      <point x="119" y="146"/>
      <point x="76" y="146" type="curve" smooth="yes"/>
      <point x="33.988" y="146"/>
      <point x="12" y="125"/>
      <point x="12" y="98" type="curve"/>
      <point x="58" y="98" type="line"/>
      <point x="58" y="107"/>
      <point x="64.945" y="110"/>
      <point x="74" y="110" type="curve" smooth="yes"/>
      <point x="84" y="110"/>
      <point x="90" y="107"/>
      <point x="90" y="100" type="curve" smooth="yes"/>
      <point x="90" y="89.732"/>
      <point x="78.674" y="85.841"/>
      <point x="64.34" y="82.386" type="curve" smooth="yes"/>
      <point x="39.638" y="76.431"/>
      <point x="6" y="71.771"/>
      <point x="6" y="38" type="curve" smooth="yes"/>
      <point x="6" y="11"/>
      <point x="25" y="-2"/>
    </contour>
    <contour>
      <point x="68" y="30" type="curve" smooth="yes"/>
      <point x="59" y="30"/>
      <point x="54" y="34"/>
      <point x="54" y="42" type="curve" smooth="yes"/>
      <point x="54" y="49.071"/>
      <point x="59" y="54"/>
      <point x="70" y="56" type="curve" smooth="yes"/>
      <point x="77.932" y="57.442"/>
      <point x="85" y="59"/>
      <point x="90" y="62" type="curve"/>
      <point x="90" y="50" type="line" smooth="yes"/>
      <point x="90" y="37"/>
      <point x="79.045" y="30"/>
    </contour>
  </outline>
</glyph>
<glyph name="b" format="2">
  <advance width="166"/>
  <unicode hex="0062"/>
  <outline>
    <contour>
      <point x="12" y="0" type="line"/>
      <point x="62" y="0" type="line"/>
      <point x="62" y="22" type="line"/>
      <point x="69" y="9"/>
      <point x="82" y="-2"/>
      <point x="102" y="-2" type="curve" smooth="yes"/>
      <point x="132" y="-2"/>
      <point x="156" y="20.99"/>
      <point x="156" y="70" type="curve" smooth="yes"/>
      <point x="156" y="124"/>
      <point x="130" y="146"/>
      <point x="102" y="146" type="curve" smooth="yes"/>
      <point x="80.976" y="146"/>
      <point x="68" y="133"/>
      <point x="62" y="120" type="curve"/>
      <point x="62" y="192" type="line"/>
      <point x="12" y="192" type="line"/>
    </contour>
    <contour>
      <point x="84" y="36" type="curve" smooth="yes"/>
      <point x="68.967" y="36"/>
      <point x="62" y="49"/>
      <point x="62" y="70" type="curve" smooth="yes"/>
      <point x="62" y="91"/>
      <point x="69" y="106"/>
      <point x="84" y="106" type="curve" smooth="yes"/>
      <point x="97.038" y="106"/>
      <point x="106" y="91"/>
      <point x="106" y="70" type="curve" smooth="yes"/>
      <point x="106" y="48.976"/>
      <point x="97" y="36"/>
    </contour>
  </outline>
</glyph>
<glyph name="c" format="2">
  <advance width="156"/>
  <unicode hex="0063"/>
  <outline>
    <contour>
      <point x="80" y="-2" type="curve" smooth="yes"/>
      <point x="121" y="-3"/>
      <point x="147" y="21"/>
      <point x="148" y="58" type="curve"/>
      <point x="100" y="58" type="line"/>
      <point x="100" y="44"/>
      <point x="92" y="36"/>
      <point x="80" y="36" type="curve" smooth="yes"/>
      <point x="68" y="36"/>
      <point x="58" y="47"/>
      <point x="58" y="70" type="curve" smooth="yes"/>
      <point x="58" y="93.022"/>
      <point x="68" y="108"/>
      <point x="80" y="108" type="curve" smooth="yes"/>
      <point x="92" y="108"/>
      <point x="99" y="100"/>
      <point x="100" y="86" type="curve"/>
      <point x="148" y="86" type="line"/>
      <point x="147" y="122"/>
      <point x="121" y="145"/>
      <point x="80" y="146" type="curve" smooth="yes"/>
      <point x="35" y="145"/>
      <point x="8" y="112"/>
      <point x="8" y="70" type="curve" smooth="yes"/>
      <point x="8" y="27"/>
      <point x="35" y="-3"/>
    </contour>
  </outline>
</glyph>
<glyph name="d" format="2">
  <advance width="166"/>
  <unicode hex="0064"/>
  <outline>
    <contour>
      <point x="64" y="-2" type="curve" smooth="yes"/>
      <point x="81.774" y="-2"/>
      <point x="95.907" y="8.849"/>
      <point x="104" y="22" type="curve"/>
      <point x="104" y="0" type="line"/>
      <point x="154" y="0" type="line"/>
      <point x="154" y="192" type="line"/>
      <point x="102" y="192" type="line"/>
      <point x="102" y="120" type="line"/>
      <point x="97" y="133"/>
      <point x="84" y="146"/>
      <point x="62" y="146" type="curve" smooth="yes"/>
      <point x="34.981" y="146"/>
      <point x="8" y="120"/>
      <point x="8" y="70" type="curve" smooth="yes"/>
      <point x="8" y="21"/>
      <point x="33" y="-2"/>
    </contour>
    <contour>
      <point x="82" y="36" type="curve" smooth="yes"/>
      <point x="68" y="36"/>
      <point x="60" y="49"/>
      <point x="60" y="70" type="curve" smooth="yes"/>
      <point x="60" y="91"/>
      <point x="68" y="106"/>
      <point x="82" y="106" type="curve" smooth="yes"/>
      <point x="96.036" y="106"/>
      <point x="104" y="91"/>
      <point x="104" y="70" type="curve" smooth="yes"/>
      <point x="104" y="49"/>
      <point x="96.036" y="36"/>
    </contour>
  </outline>
</glyph>
<glyph name="e" format="2">
  <advance width="156"/>
  <unicode hex="0065"/>
  <outline>
    <contour>
      <point x="80" y="-2" type="curve" smooth="yes"/>
      <point x="118.013" y="-2"/>
      <point x="143" y="16"/>
      <point x="148" y="46" type="curve"/>
      <point x="102" y="46" type="line"/>
      <point x="99" y="37"/>
      <point x="91" y="33"/>
      <point x="80" y="32" type="curve" smooth="yes"/>
      <point x="66.364" y="32.974"/>
      <point x="58" y="42.371"/>
      <point x="58" y="58" type="curve"/>
      <point x="148" y="58" type="line"/>
      <point x="148" y="70" type="line" smooth="yes"/>
      <point x="148" y="114"/>
      <point x="121.012" y="142"/>
      <point x="78" y="142" type="curve" smooth="yes"/>
      <point x="35" y="142"/>
      <point x="8" y="113"/>
      <point x="8" y="70" type="curve" smooth="yes"/>
      <point x="8" y="24"/>
      <point x="35" y="-2"/>
    </contour>
    <contour>
      <point x="58" y="86" type="line"/>
      <point x="58" y="98"/>
      <point x="67" y="106"/>
      <point x="80" y="106" type="curve" smooth="yes"/>
      <point x="92" y="106"/>
      <point x="102" y="98"/>
      <point x="102" y="86" type="curve"/>
    </contour>
  </outline>
</glyph>
<glyph name="f" format="2">
  <advance width="96"/>
  <unicode hex="0066"/>
  <outline>
    <contour>
      <point x="20" y="0" type="line"/>
      <point x="72" y="0" type="line" name="hr00"/>
      <point x="72" y="104" type="line"/>
      <point x="96" y="104" type="line"/>
      <point x="96" y="140" type="line"/>
      <point x="72" y="140" type="line"/>
      <point x="72" y="146" type="line" smooth="yes"/>
      <point x="72" y="152"/>
      <point x="73.95" y="156"/>
      <point x="84" y="156" type="curve" smooth="yes"/>
      <point x="96" y="156" type="line"/>
      <point x="96" y="194" type="line"/>
      <point x="65" y="194" type="line" smooth="yes"/>
      <point x="34.933" y="194"/>
      <point x="20" y="183.059"/>
      <point x="20" y="149" type="curve" smooth="yes"/>
      <point x="20" y="140" type="line"/>
      <point x="2" y="140" type="line"/>
      <point x="2" y="104" type="line"/>
      <point x="20" y="104" type="line"/>
    </contour>
  </outline>
</glyph>
<glyph name="g" format="2">
  <advance width="166"/>
  <unicode hex="0067"/>
  <outline>
    <contour>
      <point x="80" y="-56" type="curve" smooth="yes"/>
      <point x="124" y="-55"/>
      <point x="154" y="-35.014"/>
      <point x="154" y="0" type="curve" smooth="yes"/>
      <point x="154" y="144" type="line"/>
      <point x="104" y="144" type="line"/>
      <point x="104" y="120" type="line"/>
      <point x="97.355" y="132.341"/>
      <point x="85.01" y="146"/>
      <point x="62" y="146" type="curve" smooth="yes"/>
      <point x="35" y="146"/>
      <point x="8" y="124"/>
      <point x="8" y="74" type="curve" smooth="yes"/>
      <point x="8" y="25"/>
      <point x="33" y="2"/>
      <point x="64" y="2" type="curve" smooth="yes"/>
      <point x="83.661" y="2"/>
      <point x="98.325" y="12.65"/>
      <point x="104" y="24" type="curve"/>
      <point x="104" y="0" type="line" smooth="yes"/>
      <point x="104" y="-16"/>
      <point x="94" y="-21"/>
      <point x="82" y="-22" type="curve" smooth="yes"/>
      <point x="70" y="-21"/>
      <point x="61" y="-18"/>
      <point x="60" y="-10" type="curve"/>
      <point x="12" y="-10" type="line"/>
      <point x="14" y="-36"/>
      <point x="38" y="-55"/>
    </contour>
    <contour>
      <point x="82" y="38" type="curve" smooth="yes"/>
      <point x="68" y="38"/>
      <point x="60" y="53"/>
      <point x="60" y="74" type="curve" smooth="yes"/>
      <point x="60" y="95"/>
      <point x="67.964" y="106"/>
      <point x="82" y="106" type="curve" smooth="yes"/>
      <point x="96" y="106"/>
      <point x="104" y="95"/>
      <point x="104" y="74" type="curve" smooth="yes"/>
      <point x="104" y="53"/>
      <point x="96.036" y="38"/>
    </contour>
  </outline>
</glyph>
<glyph name="h" format="2">
  <advance width="166"/>
  <unicode hex="0068"/>
  <outline>
    <contour>
      <point x="12" y="0" type="line"/>
      <point x="62" y="0" type="line"/>
      <point x="62" y="82" type="line" smooth="yes"/>
      <point x="62" y="96.036"/>
      <point x="70.962" y="104"/>
      <point x="84" y="104" type="curve" smooth="yes"/>
      <point x="96" y="104"/>
      <point x="104" y="96.036"/>
      <point x="104" y="82" type="curve" smooth="yes"/>
      <point x="104" y="0" type="line"/>
      <point x="154" y="0" type="line"/>
      <point x="154" y="94" type="line" smooth="yes"/>
      <point x="154" y="124"/>
      <point x="134" y="146"/>
      <point x="104" y="146" type="curve" smooth="yes"/>
      <point x="83.975" y="146"/>
      <point x="69" y="135"/>
      <point x="62" y="118" type="curve"/>
      <point x="62" y="192" type="line"/>
      <point x="12" y="192" type="line"/>
    </contour>
  </outline>
</glyph>
<glyph name="i" format="2">
  <advance width="74"/>
  <unicode hex="0069"/>
  <outline>
    <contour>
      <point x="12" y="0" type="line"/>
      <point x="62" y="0" type="line"/>
      <point x="62" y="144" type="line"/>
      <point x="12" y="144" type="line"/>
    </contour>
    <contour>
      <point x="12" y="156" type="line"/>
      <point x="62" y="156" type="line"/>
      <point x="62" y="192" type="line"/>
      <point x="12" y="192" type="line"/>
    </contour>
  </outline>
</glyph>
<glyph name="j" format="2">
  <advance width="74.03"/>
  <unicode hex="006A"/>
  <outline>
    <contour>
      <point x="-8" y="-52" type="line"/>
      <point x="47.355" y="-52"/>
      <point x="62" y="-24.622"/>
      <point x="62" y="0" type="curve" smooth="yes"/>
      <point x="62" y="140" type="line"/>
      <point x="12" y="140" type="line"/>
      <point x="12" y="0" type="line" smooth="yes"/>
      <point x="12" y="-9.145"/>
      <point x="7.008" y="-14"/>
      <point x="-8" y="-14" type="curve"/>
    </contour>
    <contour>
      <point x="12" y="156" type="line"/>
      <point x="62" y="156" type="line"/>
      <point x="62" y="192" type="line"/>
      <point x="12" y="192" type="line"/>
    </contour>
  </outline>
</glyph>
<glyph name="k" format="2">
  <advance width="156"/>
  <unicode hex="006B"/>
  <outline>
    <contour>
      <point x="12" y="0" type="line"/>
      <point x="62" y="0" type="line"/>
      <point x="62" y="42.923" type="line"/>
      <point x="70.077" y="52.865" type="line"/>
      <point x="98" y="0" type="line"/>
      <point x="156" y="0" type="line"/>
      <point x="107.293" y="82.28" type="line"/>
      <point x="154" y="144" type="line"/>
      <point x="98" y="144" type="line"/>
      <point x="62" y="95" type="line"/>
      <point x="62" y="192" type="line"/>
      <point x="12" y="192" type="line"/>
    </contour>
  </outline>
</glyph>
<glyph name="l" format="2">
  <advance width="74"/>
  <unicode hex="006C"/>
  <outline>
    <contour>
      <point x="12" y="0" type="line"/>
      <point x="62" y="0" type="line"/>
      <point x="62" y="192" type="line"/>
      <point x="12" y="192" type="line"/>
    </contour>
  </outline>
</glyph>
<glyph name="m" format="2">
  <advance width="240"/>
  <unicode hex="006D"/>
  <outline>
    <contour>
      <point x="12" y="0" type="line"/>
      <point x="62" y="0" type="line"/>
      <point x="62" y="86" type="line" smooth="yes"/>
      <point x="62" y="98.042"/>
      <point x="68.955" y="106"/>
      <point x="80" y="106" type="curve" smooth="yes"/>
      <point x="90" y="106"/>
      <point x="96" y="98.042"/>
      <point x="96" y="86" type="curve" smooth="yes"/>
      <point x="96" y="0" type="line"/>
      <point x="144" y="0" type="line"/>
      <point x="144" y="86" type="line" smooth="yes"/>
      <point x="144" y="98.042"/>
      <point x="151" y="106"/>
      <point x="162" y="106" type="curve" smooth="yes"/>
      <point x="172.05" y="106"/>
      <point x="178" y="98.042"/>
      <point x="178" y="86" type="curve" smooth="yes"/>
      <point x="178" y="0" type="line"/>
      <point x="228" y="0" type="line"/>
      <point x="228" y="98" type="line" smooth="yes"/>
      <point x="228" y="127.017"/>
      <point x="210.019" y="146.072"/>
      <point x="184" y="146" type="curve" smooth="yes"/>
      <point x="161.696" y="145.938"/>
      <point x="145.089" y="131.571"/>
      <point x="140" y="118" type="curve"/>
      <point x="137" y="134"/>
      <point x="121" y="146"/>
      <point x="102" y="146" type="curve" smooth="yes"/>
      <point x="81.045" y="146"/>
      <point x="67.048" y="132.978"/>
      <point x="60" y="118" type="curve"/>
      <point x="60" y="144" type="line"/>
      <point x="12" y="144" type="line"/>
    </contour>
  </outline>
</glyph>
<glyph name="n" format="2">
  <advance width="166"/>
  <unicode hex="006E"/>
  <outline>
    <contour>
      <point x="62" y="78" type="line" smooth="yes"/>
      <point x="63" y="92"/>
      <point x="71" y="101"/>
      <point x="84" y="100" type="curve" smooth="yes"/>
      <point x="96" y="101"/>
      <point x="103" y="92"/>
      <point x="104" y="78" type="curve" smooth="yes"/>
      <point x="104" y="0" type="line"/>
      <point x="154" y="0" type="line"/>
      <point x="154" y="90" type="line" smooth="yes"/>
      <point x="154" y="119"/>
      <point x="134" y="141"/>
      <point x="104" y="142" type="curve" smooth="yes"/>
      <point x="84" y="141"/>
      <point x="68" y="131"/>
      <point x="62" y="114" type="curve"/>
      <point x="60" y="114" type="line"/>
      <point x="60" y="140" type="line"/>
      <point x="12" y="140" type="line"/>
      <point x="12" y="0" type="line"/>
      <point x="62" y="0" type="line"/>
    </contour>
  </outline>
</glyph>
<glyph name="o" format="2">
  <advance width="160"/>
  <unicode hex="006F"/>
  <outline>
    <contour>
      <point x="80" y="-2" type="curve" smooth="yes"/>
      <point x="125" y="-3"/>
      <point x="152" y="27"/>
      <point x="152" y="70" type="curve" smooth="yes"/>
      <point x="152" y="112"/>
      <point x="125" y="141"/>
      <point x="80" y="142" type="curve" smooth="yes"/>
      <point x="35" y="141"/>
      <point x="8" y="112"/>
      <point x="8" y="70" type="curve" smooth="yes"/>
      <point x="8" y="27"/>
      <point x="35" y="-3"/>
    </contour>
    <contour>
      <point x="80" y="34" type="curve" smooth="yes"/>
      <point x="67" y="35"/>
      <point x="59" y="48"/>
      <point x="58" y="70" type="curve" smooth="yes"/>
      <point x="59" y="92"/>
      <point x="67" y="105"/>
      <point x="80" y="106" type="curve" smooth="yes"/>
      <point x="93" y="105"/>
      <point x="101" y="92"/>
      <point x="102" y="70" type="curve" smooth="yes"/>
      <point x="101" y="48"/>
      <point x="93" y="35"/>
    </contour>
  </outline>
</glyph>
<glyph name="p" format="2">
  <advance width="166"/>
  <unicode hex="0070"/>
  <outline>
    <contour>
      <point x="12" y="-52" type="line"/>
      <point x="62" y="-52" type="line"/>
      <point x="62" y="22" type="line"/>
      <point x="67.52" y="11.749"/>
      <point x="81.834" y="-2"/>
      <point x="102" y="-2" type="curve" smooth="yes"/>
      <point x="132" y="-2"/>
      <point x="157.98" y="21"/>
      <point x="158" y="70" type="curve" smooth="yes"/>
      <point x="158.02" y="120.01"/>
      <point x="131.017" y="145.881"/>
      <point x="102" y="146" type="curve" smooth="yes"/>
      <point x="83.511" y="146.076"/>
      <point x="69.137" y="133.255"/>
      <point x="62" y="120" type="curve"/>
      <point x="62" y="144" type="line"/>
      <point x="12" y="144" type="line"/>
    </contour>
    <contour>
      <point x="62" y="70" type="curve"/>
      <point x="62" y="91"/>
      <point x="70" y="106"/>
      <point x="84" y="106" type="curve" smooth="yes"/>
      <point x="98.036" y="106"/>
      <point x="106" y="91"/>
      <point x="106" y="70" type="curve" smooth="yes"/>
      <point x="106" y="49"/>
      <point x="98.036" y="36"/>
      <point x="84" y="36" type="curve" smooth="yes"/>
      <point x="70" y="36"/>
      <point x="62" y="49"/>
    </contour>
  </outline>
</glyph>
<glyph name="q" format="2">
  <advance width="166"/>
  <unicode hex="0071"/>
  <outline>
    <contour>
      <point x="64" y="-2" type="curve" smooth="yes"/>
      <point x="80.479" y="-2"/>
      <point x="95.607" y="9.41"/>
      <point x="104" y="22" type="curve"/>
      <point x="104" y="-52" type="line"/>
      <point x="154" y="-52" type="line"/>
      <point x="154" y="144" type="line"/>
      <point x="104" y="144" type="line"/>
      <point x="104" y="120" type="line"/>
      <point x="96.396" y="133.306"/>
      <point x="83.442" y="146"/>
      <point x="64" y="146" type="curve" smooth="yes"/>
      <point x="34" y="146"/>
      <point x="8" y="120"/>
      <point x="8" y="70" type="curve" smooth="yes"/>
      <point x="8" y="22"/>
      <point x="34" y="-2"/>
    </contour>
    <contour>
      <point x="82" y="36" type="curve" smooth="yes"/>
      <point x="67.858" y="36"/>
      <point x="60" y="50"/>
      <point x="60" y="70" type="curve" smooth="yes"/>
      <point x="60" y="92"/>
      <point x="67.858" y="106"/>
      <point x="82" y="106" type="curve" smooth="yes"/>
      <point x="96" y="106"/>
      <point x="104" y="92"/>
      <point x="104" y="70" type="curve" smooth="yes"/>
      <point x="104" y="50"/>
      <point x="96" y="36"/>
    </contour>
  </outline>
</glyph>
<glyph name="r" format="2">
  <advance width="110"/>
  <unicode hex="0072"/>
  <outline>
    <contour>
      <point x="12" y="0" type="line"/>
      <point x="62" y="0" type="line"/>
      <point x="62" y="76" type="line" smooth="yes"/>
      <point x="62" y="93.17"/>
      <point x="72.483" y="104.724"/>
      <point x="92.537" y="104.315" type="curve" smooth="yes"/>
      <point x="108" y="104" type="line"/>
      <point x="108" y="146" type="line"/>
      <point x="83.105" y="146.075"/>
      <point x="70.303" y="144.292"/>
      <point x="62" y="118" type="curve"/>
      <point x="62" y="144" type="line"/>
      <point x="12" y="144" type="line"/>
    </contour>
  </outline>
</glyph>
<glyph name="s" format="2">
  <advance width="150"/>
  <unicode hex="0073"/>
  <outline>
    <contour>
      <point x="76" y="-2" type="curve" smooth="yes"/>
      <point x="115" y="-2"/>
      <point x="144" y="16"/>
      <point x="144" y="46" type="curve" smooth="yes"/>
      <point x="144" y="67"/>
      <point x="129.078" y="75.296"/>
      <point x="102" y="84" type="curve" smooth="yes"/>
      <point x="74" y="93" type="line" smooth="yes"/>
      <point x="62.536" y="96.685"/>
      <point x="60" y="98.838"/>
      <point x="60" y="102" type="curve" smooth="yes"/>
      <point x="60" y="109"/>
      <point x="67" y="112"/>
      <point x="76" y="112" type="curve" smooth="yes"/>
      <point x="85" y="112"/>
      <point x="93" y="107"/>
      <point x="94" y="98" type="curve"/>
      <point x="140" y="98" type="line"/>
      <point x="139" y="128"/>
      <point x="115" y="146"/>
      <point x="74" y="146" type="curve" smooth="yes"/>
      <point x="33.988" y="146"/>
      <point x="10" y="129"/>
      <point x="10" y="100" type="curve" smooth="yes"/>
      <point x="10" y="78"/>
      <point x="24.631" y="67.421"/>
      <point x="52" y="59" type="curve" smooth="yes"/>
      <point x="78" y="51" type="line" smooth="yes"/>
      <point x="87.605" y="48.044"/>
      <point x="94" y="46.083"/>
      <point x="94" y="40" type="curve" smooth="yes"/>
      <point x="94" y="35"/>
      <point x="86" y="32"/>
      <point x="78" y="32" type="curve" smooth="yes"/>
      <point x="65.958" y="32"/>
      <point x="58" y="36"/>
      <point x="56" y="46" type="curve"/>
      <point x="6" y="46" type="line"/>
      <point x="9" y="16"/>
      <point x="33.988" y="-2"/>
    </contour>
  </outline>
</glyph>
<glyph name="t" format="2">
  <advance width="104"/>
  <unicode hex="0074"/>
  <outline>
    <contour>
      <point x="74" y="0" type="curve" smooth="yes"/>
      <point x="92" y="0" type="line"/>
      <point x="92" y="36" type="line"/>
      <point x="81" y="36" type="line" smooth="yes"/>
      <point x="75" y="36"/>
      <point x="72" y="39"/>
      <point x="72" y="45" type="curve" smooth="yes"/>
      <point x="72" y="108" type="line"/>
      <point x="96" y="108" type="line"/>
      <point x="96" y="144" type="line"/>
      <point x="72" y="144" type="line"/>
      <point x="72" y="180" type="line"/>
      <point x="22" y="180" type="line"/>
      <point x="22" y="144" type="line"/>
      <point x="4" y="144" type="line"/>
      <point x="4" y="108" type="line"/>
      <point x="22" y="108" type="line"/>
      <point x="22" y="40" type="line" smooth="yes"/>
      <point x="22" y="12"/>
      <point x="39.927" y="0"/>
    </contour>
  </outline>
</glyph>
<glyph name="u" format="2">
  <advance width="166"/>
  <unicode hex="0075"/>
  <outline>
    <contour>
      <point x="62" y="-2" type="curve" smooth="yes"/>
      <point x="82.828" y="-2"/>
      <point x="98.904" y="10.921"/>
      <point x="106" y="26" type="curve"/>
      <point x="106" y="0" type="line"/>
      <point x="154" y="0" type="line"/>
      <point x="154" y="144" type="line"/>
      <point x="104" y="144" type="line"/>
      <point x="104" y="62" type="line" smooth="yes"/>
      <point x="104" y="46.967"/>
      <point x="95" y="38"/>
      <point x="82" y="38" type="curve" smooth="yes"/>
      <point x="69.958" y="38"/>
      <point x="62" y="46.967"/>
      <point x="62" y="62" type="curve" smooth="yes"/>
      <point x="62" y="144" type="line"/>
      <point x="12" y="144" type="line"/>
      <point x="12" y="50" type="line" smooth="yes"/>
      <point x="12" y="19.983"/>
      <point x="32" y="-2"/>
    </contour>
  </outline>
</glyph>
<glyph name="v" format="2">
  <advance width="156"/>
  <unicode hex="0076"/>
  <outline>
    <contour>
      <point x="48" y="0" type="line"/>
      <point x="106" y="0" type="line"/>
      <point x="154" y="144" type="line"/>
      <point x="100" y="144" type="line"/>
      <point x="77" y="48" type="line"/>
      <point x="54" y="144" type="line"/>
      <point x="2" y="144" type="line"/>
    </contour>
  </outline>
</glyph>
<glyph name="w" format="2">
  <advance width="224"/>
  <unicode hex="0077"/>
  <outline>
    <contour>
      <point x="38" y="0" type="line"/>
      <point x="92" y="0" type="line"/>
      <point x="112" y="74" type="line"/>
      <point x="132" y="0" type="line"/>
      <point x="186" y="0" type="line"/>
      <point x="222" y="144" type="line"/>
      <point x="172" y="144" type="line"/>
      <point x="156" y="56" type="line"/>
      <point x="136" y="144" type="line"/>
      <point x="88" y="144" type="line"/>
      <point x="69" y="54" type="line"/>
      <point x="52" y="144" type="line"/>
      <point x="2" y="144" type="line"/>
    </contour>
  </outline>
</glyph>
<glyph name="x" format="2">
  <advance width="152"/>
  <unicode hex="0078"/>
  <outline>
    <contour>
      <point x="4" y="0" type="line"/>
      <point x="54" y="0" type="line"/>
      <point x="76" y="46" type="line"/>
      <point x="100" y="0" type="line"/>
      <point x="150" y="0" type="line"/>
      <point x="110" y="72" type="line"/>
      <point x="148" y="144" type="line"/>
      <point x="98" y="144" type="line"/>
      <point x="76" y="98" type="line"/>
      <point x="56" y="144" type="line"/>
      <point x="6" y="144" type="line"/>
      <point x="42" y="72" type="line"/>
    </contour>
  </outline>
</glyph>
<glyph name="y" format="2">
  <advance width="154"/>
  <unicode hex="0079"/>
  <outline>
    <contour>
      <point x="14" y="-52" type="line"/>
      <point x="44" y="-52" type="line"/>
      <point x="78" y="-52"/>
      <point x="94.397" y="-34.808"/>
      <point x="102" y="-12" type="curve" smooth="yes"/>
      <point x="154" y="144" type="line"/>
      <point x="100" y="144" type="line"/>
      <point x="77" y="40" type="line"/>
      <point x="54" y="144" type="line"/>
      <point x="2" y="144" type="line"/>
      <point x="50.409" y="-4" type="line"/>
      <point x="50.409" y="-9" type="line" smooth="yes"/>
      <point x="50.409" y="-14.53"/>
      <point x="39.749" y="-15.242"/>
      <point x="13.61" y="-15" type="curve"/>
    </contour>
  </outline>
</glyph>
<glyph name="z" format="2">
  <advance width="152"/>
  <unicode hex="007A"/>
  <outline>
    <contour>
      <point x="14" y="0" type="line"/>
      <point x="136" y="0" type="line"/>
      <point x="136" y="38" type="line"/>
      <point x="78" y="38" type="line"/>
      <point x="134" y="114" type="line"/>
      <point x="134" y="144" type="line"/>
      <point x="16" y="144" type="line"/>
      <point x="16" y="106" type="line"/>
      <point x="76" y="106" type="line"/>
      <point x="14" y="28" type="line"/>
    </contour>
  </outline>
</glyph>
